<svg width="40" height="40" fill="none" xmlns="http://www.w3.org/2000/svg"><g clip-path="url(#clip0)"><path d="M34.536 7.98c-.366-.448-.915-.695-1.545-.695-.343 0-.706.072-1.08.215L6.519 17.194c-1.348.514-1.53 1.286-1.518 1.7.012.414.237 1.175 1.611 1.612l.025.007 5.268 1.508 2.848 8.146c.389 1.11 1.26 1.8 2.276 1.8.64 0 1.27-.268 1.82-.775l3.259-3 4.726 3.805.001.001.045.036.013.01c.525.407 1.098.623 1.658.623 1.095 0 1.966-.81 2.22-2.064l4.16-20.545c.168-.825.028-1.563-.394-2.078zm-20.87 13.755l10.162-5.192-6.328 6.724a.877.877 0 00-.213.391l-1.22 4.943-2.401-6.866zm3.992 8.163a1.684 1.684 0 01-.127.105l1.132-4.584 2.06 1.658-3.065 2.821zM33.208 9.71l-4.16 20.546c-.04.196-.169.654-.498.654-.162 0-.366-.089-.575-.25l-5.355-4.311-.003-.002-3.186-2.566 9.15-9.724a.879.879 0 00-1.039-1.385l-15.05 7.69-5.34-1.528 25.387-9.69c.214-.083.364-.1.452-.1.053 0 .15.006.185.05.046.057.106.251.032.616z" fill="#C4C4C4"/></g><path stroke="#C4C4C4" stroke-width="2" d="M1 1h38v38H1z"/><defs><clipPath id="clip0"><path fill="#fff" d="M5 5h30v30H5z"/></clipPath></defs></svg>