<svg width="40" height="40" fill="none" xmlns="http://www.w3.org/2000/svg"><path stroke="#C4C4C4" stroke-width="2" d="M1 1h38v38H1z"/><path d="M33.74 15.588c0-2.817-1.105-5.473-3.11-7.478A10.513 10.513 0 0023.151 5h-6.274A10.513 10.513 0 009.4 8.11a10.514 10.514 0 00-3.11 7.478v4.932c0 2.182.666 4.28 1.925 6.07a10.626 10.626 0 004.347 3.593v2.833c0 1.464.82 1.984 1.522 1.984.502 0 1.004-.248 1.492-.736l3.156-3.156h4.42a10.51 10.51 0 007.479-3.11 10.514 10.514 0 003.11-7.478v-4.932zM23.15 29.35h-4.784a.879.879 0 00-.621.258l-3.414 3.413-.013.013v-3.438a.879.879 0 00-.566-.82c-3.413-1.303-5.706-4.62-5.706-8.256v-4.932c0-2.348.922-4.563 2.595-6.236a8.767 8.767 0 016.235-2.594h6.274c2.348 0 4.563.921 6.236 2.594a8.766 8.766 0 012.595 6.236v4.932c0 4.869-3.962 8.83-8.83 8.83z" fill="#C4C4C4"/><path d="M22.351 19.375a.879.879 0 00-1.242 0l-.71.71-2.752-2.751.71-.71a.88.88 0 000-1.243l-3.328-3.328a.879.879 0 00-1.243 0l-2.33 2.33a3.236 3.236 0 000 4.57l7.323 7.323a3.21 3.21 0 002.285.944 3.21 3.21 0 002.286-.944l2.33-2.33a.88.88 0 000-1.242l-3.329-3.329zm-.244 5.658c-.277.277-.647.43-1.043.43-.395 0-.766-.153-1.043-.43L12.7 17.711a1.476 1.476 0 010-2.085l1.709-1.71 2.085 2.087-.71.71a.879.879 0 000 1.242l3.994 3.994c.343.343.9.344 1.243 0l.71-.71 2.085 2.086-1.708 1.708zm-1.88-16.145a.879.879 0 100 1.758 7.48 7.48 0 015.325 2.205 7.48 7.48 0 012.206 5.325.879.879 0 001.758 0 9.228 9.228 0 00-2.72-6.568 9.228 9.228 0 00-6.569-2.72z" fill="#C4C4C4"/><path d="M23.993 18.176a.88.88 0 001.758 0 5.53 5.53 0 00-5.524-5.522.879.879 0 100 1.757 3.77 3.77 0 013.766 3.765z" fill="#C4C4C4"/></svg>