<svg width="40" height="40" fill="none" xmlns="http://www.w3.org/2000/svg"><path stroke="#C4C4C4" stroke-width="2" d="M1 1h38v38H1z"/><g clip-path="url(#clip0)"><path d="M20.181 29.375c4.34 0 2.793-2.747 3.128-3.538-.005-.59-.01-1.157.01-1.502.275.078.924.406 2.264 1.709 2.068 2.087 2.597 3.331 4.268 3.331h3.077c.975 0 1.482-.404 1.736-.742.245-.328.485-.903.222-1.798-.686-2.155-4.689-5.876-4.937-6.269a3.52 3.52 0 01.128-.218h-.002c.79-1.044 3.805-5.562 4.249-7.37a.023.023 0 00.002-.01c.24-.824.02-1.36-.207-1.662-.343-.452-.888-.681-1.624-.681h-3.076c-1.03 0-1.811.519-2.207 1.465-.66 1.681-2.518 5.139-3.91 6.363a80.036 80.036 0 01.008-4.042c.045-1.918.19-3.786-1.801-3.786h-4.835c-1.248 0-2.441 1.363-1.149 2.98 1.13 1.418.406 2.207.65 6.14-.95-1.019-2.64-3.77-3.835-7.286-.335-.951-.842-1.833-2.271-1.833H6.992c-1.247 0-1.992.68-1.992 1.819 0 2.557 5.661 16.93 15.181 16.93zM10.07 12.501c.271 0 .298 0 .5.572 1.223 3.603 3.968 8.936 5.973 8.936 1.507 0 1.507-1.544 1.507-2.125l-.002-4.628c-.082-1.531-.64-2.293-1.006-2.756l4.385.005c.003.021-.025 5.119.013 6.354 0 1.753 1.392 2.758 3.566.558 2.294-2.588 3.88-6.458 3.944-6.616.093-.225.175-.301.47-.301h3.089l-.003.011c-.281 1.313-3.058 5.495-3.986 6.794a.993.993 0 00-.043.063c-.409.667-.741 1.405.056 2.442h.002c.072.088.261.293.536.578.855.882 3.788 3.9 4.047 5.1-.172.027-.36.007-3.266.013-.618 0-1.102-.925-2.948-2.787-1.66-1.615-2.738-2.275-3.72-2.275-1.904 0-1.765 1.546-1.748 3.416.006 2.027-.006 1.386.008 1.514-.112.044-.43.131-1.262.131-7.931 0-13.096-12.589-13.295-14.995.069-.006 1.015-.003 3.183-.004z" fill="#C4C4C4"/></g><defs><clipPath id="clip0"><path fill="#fff" d="M5 5h30v30H5z"/></clipPath></defs></svg>