<svg width="40" height="40" fill="none" xmlns="http://www.w3.org/2000/svg"><path stroke="#C4C4C4" stroke-width="2" d="M1 1h38v38H1z"/><g clip-path="url(#clip0)" fill="#C4C4C4"><path d="M30.739 9.261A14.452 14.452 0 0020.452 5h-.002c-1.922 0-3.795.372-5.567 1.106a14.475 14.475 0 00-4.718 3.155 14.453 14.453 0 00-4.261 10.287c0 2.318.559 4.62 1.618 6.673l-2.445 6.985a1.337 1.337 0 00.319 1.398 1.336 1.336 0 001.398.32l6.986-2.446a14.592 14.592 0 006.672 1.619c3.886 0 7.539-1.514 10.287-4.262A14.453 14.453 0 0035 19.548a14.45 14.45 0 00-4.261-10.287zm-1.244 19.33a12.704 12.704 0 01-9.043 3.746c-2.09 0-4.166-.517-6.004-1.495a1.355 1.355 0 00-1.08-.084L7.02 32.98l2.221-6.346a1.356 1.356 0 00-.084-1.081 12.82 12.82 0 01-1.495-6.004c0-3.416 1.33-6.627 3.746-9.043A12.706 12.706 0 0120.45 6.76c3.417 0 6.628 1.33 9.044 3.746a12.704 12.704 0 013.746 9.043c0 3.416-1.33 6.628-3.746 9.043z"/><path d="M25.858 20.848a1.719 1.719 0 00-2.427 0l-.732.732a10.654 10.654 0 01-4.28-4.28l.733-.731c.67-.67.67-1.758 0-2.428l-1.973-1.972a1.719 1.719 0 00-2.427 0l-1.578 1.578c-.904.904-.949 2.458-.127 4.375.714 1.666 2.02 3.496 3.677 5.153 1.658 1.658 3.488 2.964 5.153 3.678.912.39 1.74.585 2.457.585.79 0 1.445-.238 1.919-.712l1.578-1.578c.324-.324.503-.755.503-1.214 0-.458-.179-.89-.503-1.214l-1.973-1.972zm-.85 4.734c-.257.258-1.05.348-2.437-.246-1.465-.628-3.1-1.801-4.602-3.305-1.504-1.503-2.677-3.137-3.305-4.602-.594-1.386-.504-2.18-.246-2.438l1.548-1.548 1.912 1.912-.917.917a1.343 1.343 0 00-.248 1.563 12.412 12.412 0 005.452 5.452c.52.266 1.15.166 1.563-.248l.917-.917 1.911 1.912-1.547 1.548z"/></g><defs><clipPath id="clip0"><path fill="#fff" d="M5 5h30v30H5z"/></clipPath></defs></svg>