<svg width="50" height="50" fill="none" xmlns="http://www.w3.org/2000/svg"><path d="M37.222 47.135c-.754-1.39-1.529-4.933-1.832-7.194h.84a.684.684 0 00.684-.683 8.603 8.603 0 00-8.594-8.594h-.293v-1.66a.684.684 0 00-.683-.684h-.489V3.71a1.855 1.855 0 10-3.71 0v24.61h-.489a.683.683 0 00-.683.684v1.66h-.293a8.603 8.603 0 00-8.594 8.594.684.684 0 00.684.683h.84c-.323 2.44-1.13 5.893-1.834 7.195a.684.684 0 00.602 1.008H36.62a.684.684 0 00.6-1.01h.002zM24.512 3.71a.488.488 0 11.976 0v24.61h-.976V3.71zM23.34 29.688h3.32v.976h-3.32v-.977zm-1.66 2.343h6.64a7.238 7.238 0 017.195 6.543h-21.03a7.237 7.237 0 017.195-6.543zm10.732 14.746c-.38-.948-.66-1.935-.83-2.943a.684.684 0 00-1.347.239c.162.919.4 1.824.708 2.704H28.75c-.39-1.011-.607-2.734-.794-4.436a.682.682 0 00-1.008-.525.682.682 0 00-.35.674c.117 1.446.354 2.88.71 4.287H22.24c.243-.904.403-1.828.478-2.761a.683.683 0 10-1.362-.125 13.867 13.867 0 01-.536 2.886h-2.43a40.12 40.12 0 00.94-4.324.681.681 0 00-.565-.784.683.683 0 00-.784.565 38.469 38.469 0 01-1.013 4.543h-2.543a35.283 35.283 0 001.564-6.836H34.01a35.21 35.21 0 001.563 6.836h-3.16z" fill="#2C2C2C"/><path d="M28.662 34.277h-7.324a.684.684 0 000 1.367h7.324a.684.684 0 100-1.367z" fill="#2C2C2C"/></svg>