<svg width="50" height="50" fill="none" xmlns="http://www.w3.org/2000/svg"><path d="M37.096 22.194h8.062v1.614h-8.062v-1.614zm-4.036 4.842h12.097v1.615H33.061v-1.615zm-16.938 4.843h29.035v1.614H16.122V31.88zm24.193 4.833h4.843v1.614h-4.843v-1.614zm-8.061 0h4.842v1.614h-4.842v-1.614zm-8.071 0h4.842v1.614h-4.842v-1.614zm-7.254-15.325c.59 0 1.132.167 1.604.443a3.218 3.218 0 011.624-.443 3.23 3.23 0 013.229 3.228 3.23 3.23 0 01-3.229 3.229c-.58 0-1.132-.158-1.624-.443a3.163 3.163 0 01-1.604.443 3.23 3.23 0 01-3.229-3.229 3.23 3.23 0 013.229-3.228zm2.815 4.783c.137.04.275.06.413.06.886 0 1.614-.729 1.614-1.615s-.728-1.614-1.614-1.614c-.138 0-.285.03-.413.06.256.462.413.983.413 1.554 0 .571-.157 1.093-.413 1.555zm-2.815.06c.886 0 1.614-.729 1.614-1.615s-.728-1.614-1.614-1.614a1.62 1.62 0 00-1.614 1.614 1.62 1.62 0 001.614 1.614z" fill="#2C2C2C"/><path d="M1.683 17.656L35.522 6.967c.236-.078 2.126-.698 3.031 1.575l2.786 8.81h6.24A2.432 2.432 0 0150 19.771v20.975a2.42 2.42 0 01-2.421 2.421H12.086a2.404 2.404 0 01-2.017-1.092s-1.093.305-1.339.305a2.398 2.398 0 01-2.303-1.693l-6.32-20c-.196-.61-.334-2.52 1.576-3.032zm36.309-5.55L21.368 17.35h10.719l6.88-2.175-.975-3.07zm1.457 4.615l-2.018.64h2.215l-.197-.64zm-28.17 24.026h.01a.81.81 0 00.807.807H47.58a.81.81 0 00.807-.807V19.773a.81.81 0 00-.807-.808H12.086a.81.81 0 00-.807.808v20.974zm-3.317-.541c.128.413.6.66 1.014.521l.699-.216V26.13l-5.6 1.772 3.887 12.303zm-4.37-13.849l6.083-1.919v-3.386l-7.057 2.224.974 3.081zm-1.949-6.151l.483 1.535 7.588-2.392a2.418 2.418 0 012.372-1.988h3.928L37.51 10.57l-.482-1.536a.81.81 0 00-1.014-.521L2.174 19.192c-.678.177-.59.807-.53 1.014z" fill="#2C2C2C"/></svg>