<svg width="50" height="50" fill="none" xmlns="http://www.w3.org/2000/svg"><path d="M45.143 39.334a8.853 8.853 0 00-5.945-6.957l-6.94-2.313v-1.032h-1.613v1.328c-.446.493-2.032 1.898-5.645 1.898-3.612 0-5.198-1.405-5.645-1.898v-1.328h-1.613v1.032l-6.938 2.313a8.853 8.853 0 00-5.946 6.957L3.08 50h43.84l-1.777-10.666zM4.985 48.387l.259-1.556 5.36.67c.055.339.125.632.203.886H4.985zm5.506-2.525l-4.982-.623.94-5.639a7.243 7.243 0 014.864-5.693l.056-.018.705 7.046c-.426.709-1.546 2.778-1.583 4.927zm26.975 2.525H12.535c-.175-.35-.438-1.09-.438-2.42 0-2.137 1.463-4.369 1.478-4.391l.16-.24-.797-7.97 5.357-1.786c.796.798 2.805 2.29 6.705 2.29s5.91-1.492 6.705-2.29l5.358 1.786-.797 7.97.16.24c.015.022 1.478 2.24 1.478 4.392 0 1.329-.263 2.07-.438 2.42zm1.166-14.498l.056.018a7.243 7.243 0 014.864 5.693l.94 5.64-4.982.622c-.036-2.148-1.156-4.218-1.583-4.927l.705-7.046zm.563 14.498c.078-.254.147-.547.202-.886l5.36-.67.259 1.556h-5.821z" fill="#2C2C2C"/><path d="M14.873 21.729a8.817 8.817 0 002.242 3.784l3.144 3.145a4.006 4.006 0 002.852 1.18h3.779c1.077 0 2.09-.419 2.851-1.18l3.145-3.145a8.83 8.83 0 002.242-3.784c2.01-.227 3.582-1.918 3.582-3.987a4.046 4.046 0 00-1.613-3.222V7.51c0-4.14-3.37-7.51-7.51-7.51h-9.174c-4.14 0-7.51 3.37-7.51 7.51v7.01a4.046 4.046 0 00-1.612 3.222c0 2.07 1.572 3.76 3.582 3.987zM33.87 19.24a7.214 7.214 0 01-2.126 5.133L28.6 27.518a2.406 2.406 0 01-1.711.708h-3.78a2.404 2.404 0 01-1.71-.708l-3.145-3.145a7.214 7.214 0 01-2.126-5.133v-2.527a6.27 6.27 0 001.613.223c1.216 0 2.06-.347 2.955-.714 1.077-.443 2.19-.9 4.303-.9s3.227.457 4.304.9c.894.367 1.74.713 2.954.713a6.27 6.27 0 001.613-.222v2.527zm-1.613-3.917c-.896 0-1.534-.263-2.342-.594-1.107-.454-2.484-1.02-4.916-1.02-2.431 0-3.808.566-4.916 1.02-.807.332-1.445.594-2.342.594-1.318 0-2.37-.57-2.955-.977.897-1.175 3.662-3.862 10.213-3.862 6.56 0 9.325 2.695 10.217 3.864-.58.407-1.626.975-2.959.975zm4.84 2.419c0 1.064-.696 1.96-1.652 2.282a8.85 8.85 0 00.038-.784v-3.167c.2-.11.377-.219.536-.325a2.417 2.417 0 011.077 1.994zM14.516 7.51a5.903 5.903 0 015.896-5.897h9.174a5.903 5.903 0 015.897 5.897v4.77C33.835 10.759 30.657 8.87 25 8.87c-5.656 0-8.834 1.888-10.483 3.409V7.51zm-.536 8.238a7.2 7.2 0 00.536.325v3.166c0 .264.015.526.037.785a2.414 2.414 0 01-1.65-2.282c0-.804.416-1.546 1.077-1.994zm18.548 23.987a2.407 2.407 0 01-2.41 2.2H19.883a2.408 2.408 0 01-2.41-2.2l-.54-5.937-1.606.146.54 5.938a4.013 4.013 0 004.016 3.666h10.236c2.1 0 3.826-1.576 4.016-3.667l.54-5.937-1.607-.146-.54 5.937z" fill="#2C2C2C"/></svg>