<svg width="50" height="50" fill="none" xmlns="http://www.w3.org/2000/svg"><g clip-path="url(#clip0)" fill="#2C2C2C"><path d="M11.667 34.167a2.5 2.5 0 100 5 2.5 2.5 0 000-5zm0 3.333a.833.833 0 110-1.667.833.833 0 010 1.667zm26.666-3.333a2.5 2.5 0 100 5 2.5 2.5 0 000-5zm0 3.333a.833.833 0 110-1.667.833.833 0 010 1.667z"/><path d="M49.365 22.305l-5.74-6.465A2.5 2.5 0 0041.75 15h-7.583v-5a2.503 2.503 0 00-2.5-2.5H2.5A2.503 2.503 0 000 10v21.667a.833.833 0 00.833.833h.834V35a2.503 2.503 0 002.5 2.5H5.9a5.826 5.826 0 0011.534 0h15.133a5.826 5.826 0 0011.533 0h3.4A2.503 2.503 0 0050 35V23.966c0-.613-.227-1.204-.635-1.661zM1.667 30.833V10c0-.46.373-.833.833-.833h29.167c.46 0 .833.373.833.833v20.833H1.667zm4.233 5H4.167A.834.834 0 013.333 35v-2.5h4.26A5.818 5.818 0 005.9 35.833zm5.767 5a4.167 4.167 0 110-8.333 4.167 4.167 0 010 8.333zm8.333-5h-2.567a5.817 5.817 0 00-1.692-3.333H20v3.333zm7.5 0h-5.833V32.5H27.5v3.333zm5.067 0h-3.4V32.5h5.092a5.818 5.818 0 00-1.692 3.333zm5.766 5a4.167 4.167 0 110-8.333 4.167 4.167 0 010 8.333zm10-5.833c0 .46-.373.833-.833.833h-3.4a5.838 5.838 0 00-5.767-5h-4.166V16.667H37.5V25a2.503 2.503 0 002.5 2.5h8.333V35zm0-9.167H40a.834.834 0 01-.833-.833v-8.333h2.583c.24-.002.468.1.627.278l5.743 6.467c.136.153.212.35.213.555v1.866z"/></g><defs><clipPath id="clip0"><path fill="#fff" d="M0 0h50v50H0z"/></clipPath></defs></svg>