<svg width="50" height="50" fill="none" xmlns="http://www.w3.org/2000/svg"><g clip-path="url(#clip0)" fill="#2C2C2C"><path d="M47.773 23.172l-2.505-.274a15.829 15.829 0 00-3.351-4.444 6.67 6.67 0 00.75-2.37 15.403 15.403 0 00-.059-3.679l-.011-.104a4.308 4.308 0 00-1.167-2.982c-.807-.71-2.326-1.096-4.968 1.098a8.991 8.991 0 00-2.644 3.584c-.073.19-.121.38-.177.57a27.918 27.918 0 00-1.245-.37A9.984 9.984 0 0023.333 0a9.912 9.912 0 00-5.457 1.62.834.834 0 00.916 1.393 8.25 8.25 0 014.541-1.346 8.328 8.328 0 013.019 16.097 17.378 17.378 0 00-6.028 0A8.3 8.3 0 0115 10a8.197 8.197 0 01.908-3.786.833.833 0 10-1.482-.761 9.928 9.928 0 003.53 12.964 8.14 8.14 0 00-1.768.905.833.833 0 00.958 1.363 8.918 8.918 0 013.322-1.25h.024a15.56 15.56 0 015.683 0h.017a8.93 8.93 0 013.329 1.25.833.833 0 10.958-1.363 8.132 8.132 0 00-1.757-.905c1.11-.71 2.07-1.632 2.824-2.713.61.154 1.22.334 1.833.538-.014.473.03.945.131 1.407a.833.833 0 101.624-.373 4.516 4.516 0 01.236-2.672 7.313 7.313 0 012.153-2.902c1.317-1.095 2.364-1.515 2.804-1.13.413.55.628 1.223.607 1.91l.012.107c.15 1.088.17 2.19.062 3.284a3.829 3.829 0 01-1.658 2.932.834.834 0 10.794 1.465c.259-.144.502-.316.724-.512a14.049 14.049 0 013.084 4.263c.122.267.375.45.666.482l2.966.325a.834.834 0 01.741.833v6.183a.833.833 0 01-.74.834l-2.967.325a.834.834 0 00-.666.485c-.377.82-.838 1.6-1.374 2.325a3.166 3.166 0 01-1.75-2.483.833.833 0 00-1.661.003 4.75 4.75 0 002.35 3.781 17.443 17.443 0 01-3.85 3.097.828.828 0 00-.403.655l-.539 7.467h-5.118l-.325-4.641a.833.833 0 00-.985-.762l-.145.027a16.354 16.354 0 01-6.971 0l-.145-.027a.833.833 0 00-.984.762l-.327 4.641h-5.12l-.532-7.466a.833.833 0 00-.402-.655 30.07 30.07 0 01-.465-.29c-5.06-3.221-7.663-8.515-6.632-13.485a13.673 13.673 0 015.014-7.783.834.834 0 00-1.038-1.304 15.348 15.348 0 00-5.608 8.75 12.409 12.409 0 00-.25 2.403c-.554.037-1.092.073-1.61.09.03-.126.055-.256.074-.388a2.93 2.93 0 00-.74-2.515 2.667 2.667 0 00-3.341-.19 2.564 2.564 0 00-1.05 1.658 2.514 2.514 0 00.687 2.084 3.407 3.407 0 001.967.895c-.42.9-.949 1.746-1.572 2.519a.835.835 0 101.31 1.035 13.786 13.786 0 001.951-3.245l.078-.179c.771 0 1.566-.051 2.343-.103.53 4.307 3.235 8.431 7.568 11.191l.087.055.5 7.046c.07.87.794 1.541 1.667 1.544h5.116a1.68 1.68 0 001.667-1.55l.26-3.713c.993.187 2.002.275 3.013.263a15.339 15.339 0 003.016-.263l.261 3.719c.07.87.794 1.541 1.667 1.544h5.116a1.678 1.678 0 001.667-1.548l.5-7.04a17.107 17.107 0 006.379-6.81l2.5-.274A2.5 2.5 0 0050 31.842v-6.184a2.5 2.5 0 00-2.227-2.486zM3.507 27.966a3.172 3.172 0 01-.15.583 2.358 2.358 0 01-1.44-.457.847.847 0 01-.245-.686.882.882 0 01.375-.552c.18-.124.394-.19.613-.187a.833.833 0 01.588.211c.247.305.343.705.26 1.088z"/><path d="M40.833 24.167a.833.833 0 00-1.666 0 1.667 1.667 0 11-3.334 0 .833.833 0 00-1.666 0 3.333 3.333 0 106.666 0zm-16.667-7.5v-.076a3.879 3.879 0 003.334-3.674 3.88 3.88 0 00-3.334-3.675V5.128a2.146 2.146 0 011.667 1.955.833.833 0 101.667 0 3.88 3.88 0 00-3.334-3.674v-.076a.833.833 0 00-1.666 0v.076a3.88 3.88 0 00-3.334 3.674 3.88 3.88 0 003.334 3.675v4.114a2.146 2.146 0 01-1.667-1.955.833.833 0 10-1.666 0A3.88 3.88 0 0022.5 16.59v.076a.833.833 0 001.666 0zm1.667-3.75a2.146 2.146 0 01-1.666 1.955v-3.91a2.146 2.146 0 011.666 1.955zm-5-5.834A2.146 2.146 0 0122.5 5.128v3.91a2.146 2.146 0 01-1.667-1.955z"/></g><defs><clipPath id="clip0"><path fill="#fff" d="M0 0h50v50H0z"/></clipPath></defs></svg>