<svg width="50" height="50" fill="none" xmlns="http://www.w3.org/2000/svg"><g clip-path="url(#clip0)" fill="#2C2C2C"><path d="M37.5 5.208a8.333 8.333 0 000 16.667 8.343 8.343 0 008.333-8.333A8.333 8.333 0 0037.5 5.208zm0 14.584a6.25 6.25 0 010-12.5 6.256 6.256 0 016.25 6.25 6.25 6.25 0 01-6.25 6.25z"/><path d="M39.889 10.722l-3.43 3.43-1.347-1.347-1.473 1.473 2.083 2.083a1.041 1.041 0 001.473 0l4.166-4.166-1.472-1.473zm-4.473 16.361H20.834v2.084h14.584v-2.084zM22.917 12.5H11.458a7.3 7.3 0 00-7.292 7.292H6.25a5.214 5.214 0 015.208-5.209h11.458a2.083 2.083 0 110 4.167H11.458v2.083h11.458a4.167 4.167 0 100-8.333z"/><path d="M1.042 16.667c-.576 0-1.042.466-1.042 1.041v1.042h5.208v-2.083H1.042zm46.875 13.541v14.584c0 1.725-1.4 3.125-3.125 3.125h-25a3.125 3.125 0 01-3.125-3.125v-25h-2.084v25A5.214 5.214 0 0019.793 50h25A5.214 5.214 0 0050 44.792V30.208h-2.083zM44.792 0H23.958c-.276 0-.54.11-.736.305l-8.333 8.333 1.473 1.473 8.028-8.028h20.402c1.726 0 3.125 1.4 3.125 3.125v14.584H50V5.208A5.215 5.215 0 0044.792 0z"/><path d="M24.695.305a1.042 1.042 0 00-1.473 0L14.889 8.64c-.196.195-.305.46-.305.736v4.167h2.083V9.806l6.25-6.25v3.736c0 .575-.467 1.041-1.042 1.041h-2.083v2.084h2.083c1.726 0 3.125-1.4 3.125-3.125v-6.25c0-.277-.11-.541-.305-.737zM6.25 28.125H4.167a7.3 7.3 0 007.291 7.292v-2.084a5.215 5.215 0 01-5.208-5.208zm9.375 5.208h-4.167v2.084h4.167v-2.084z"/><path d="M0 29.167v1.041c0 .576.466 1.042 1.042 1.042h4.166v-2.083H0zm49.096-6.387a3.16 3.16 0 00-4.364 0L30.28 37.231a1.042 1.042 0 000 1.473l2.89 2.89a1.041 1.041 0 001.474 0l14.453-14.452.001-.002a3.084 3.084 0 00-.001-4.362zm-1.473 2.89L33.906 39.386 32.49 37.97l13.716-13.717a1.026 1.026 0 011.418 0 1.003 1.003 0 010 1.418z"/><path d="M33.437 39.928l-2.983 1.49 1.494-2.986-1.864-.932-2.891 5.784a1.041 1.041 0 00.932 1.508c.161.001.32-.035.466-.105l5.784-2.895-.938-1.864zm9.156-13.533l-1.473 1.473 2.89 2.89 1.473-1.472-2.89-2.89z"/><path d="M28.125 42.708h-7.292v2.084h7.292v-2.084zM27.083 37.5h-6.25v2.083h6.25V37.5zm3.125-5.208h-9.375v2.083h9.375v-2.083zM43.75 42.708h-9.375v2.084h9.375v-2.084zm0-5.208h-4.167v2.083h4.167V37.5z"/></g><defs><clipPath id="clip0"><path fill="#fff" d="M0 0h50v50H0z"/></clipPath></defs></svg>