<?xml version="1.0" encoding="utf-8"?><svg xmlns="http://www.w3.org/2000/svg" xmlns:xlink="http://www.w3.org/1999/xlink"><symbol viewBox="0 0 40 40" id="telegram" xmlns="http://www.w3.org/2000/svg">
    <g clip-path="url(#aclip0)">
        <path class="asvg-fill" d="M34.536 7.98c-.366-.448-.915-.695-1.545-.695-.343 0-.706.072-1.08.215L6.519 17.194c-1.348.514-1.53 1.286-1.518 1.7.012.414.237 1.175 1.611 1.612l.025.007 5.268 1.508 2.848 8.146c.389 1.11 1.26 1.8 2.276 1.8.64 0 1.27-.268 1.82-.775l3.259-3 4.726 3.805.001.001.045.036.013.01c.525.407 1.098.623 1.658.623 1.095 0 1.966-.81 2.22-2.064l4.16-20.545c.168-.825.028-1.563-.394-2.078zm-20.87 13.755l10.162-5.192-6.328 6.724a.877.877 0 00-.213.391l-1.22 4.943-2.401-6.866zm3.992 8.163a1.684 1.684 0 01-.127.105l1.132-4.584 2.06 1.658-3.065 2.821zM33.208 9.71l-4.16 20.546c-.04.196-.169.654-.498.654-.162 0-.366-.089-.575-.25l-5.355-4.311-.003-.002-3.186-2.566 9.15-9.724a.879.879 0 00-1.039-1.385l-15.05 7.69-5.34-1.528 25.387-9.69c.214-.083.364-.1.452-.1.053 0 .15.006.185.05.046.057.106.251.032.616z"/>
    </g>
    <path class="asvg-stroke" d="M1 1h38v38H1z"/>
    <defs>
        <clipPath id="aclip0">
            <path d="M5 5h30v30H5z"/>
        </clipPath>
    </defs>
</symbol><symbol viewBox="0 0 40 40" id="viber" xmlns="http://www.w3.org/2000/svg">
    <path stroke-width="2" d="M1 1h38v38H1z"/>
    <path d="M33.74 15.588c0-2.817-1.105-5.473-3.11-7.478A10.513 10.513 0 0023.151 5h-6.274A10.513 10.513 0 009.4 8.11a10.514 10.514 0 00-3.11 7.478v4.932c0 2.182.666 4.28 1.925 6.07a10.626 10.626 0 004.347 3.593v2.833c0 1.464.82 1.984 1.522 1.984.502 0 1.004-.248 1.492-.736l3.156-3.156h4.42a10.51 10.51 0 007.479-3.11 10.514 10.514 0 003.11-7.478v-4.932zM23.15 29.35h-4.784a.879.879 0 00-.621.258l-3.414 3.413-.013.013v-3.438a.879.879 0 00-.566-.82c-3.413-1.303-5.706-4.62-5.706-8.256v-4.932c0-2.348.922-4.563 2.595-6.236a8.767 8.767 0 016.235-2.594h6.274c2.348 0 4.563.921 6.236 2.594a8.766 8.766 0 012.595 6.236v4.932c0 4.869-3.962 8.83-8.83 8.83z"/>
    <path d="M22.351 19.375a.879.879 0 00-1.242 0l-.71.71-2.752-2.751.71-.71a.88.88 0 000-1.243l-3.328-3.328a.879.879 0 00-1.243 0l-2.33 2.33a3.236 3.236 0 000 4.57l7.323 7.323a3.21 3.21 0 002.285.944 3.21 3.21 0 002.286-.944l2.33-2.33a.88.88 0 000-1.242l-3.329-3.329zm-.244 5.658c-.277.277-.647.43-1.043.43-.395 0-.766-.153-1.043-.43L12.7 17.711a1.476 1.476 0 010-2.085l1.709-1.71 2.085 2.087-.71.71a.879.879 0 000 1.242l3.994 3.994c.343.343.9.344 1.243 0l.71-.71 2.085 2.086-1.708 1.708zm-1.88-16.145a.879.879 0 100 1.758 7.48 7.48 0 015.325 2.205 7.48 7.48 0 012.206 5.325.879.879 0 001.758 0 9.228 9.228 0 00-2.72-6.568 9.228 9.228 0 00-6.569-2.72z"/>
    <path d="M23.993 18.176a.88.88 0 001.758 0 5.53 5.53 0 00-5.524-5.522.879.879 0 100 1.757 3.77 3.77 0 013.766 3.765z"/>
</symbol><symbol viewBox="0 0 40 40" id="vk" xmlns="http://www.w3.org/2000/svg">
    <path stroke-width="2" d="M1 1h38v38H1z"/>
    <g clip-path="url(#cclip0)">
        <path d="M20.181 29.375c4.34 0 2.793-2.747 3.128-3.538-.005-.59-.01-1.157.01-1.502.275.078.924.406 2.264 1.709 2.068 2.087 2.597 3.331 4.268 3.331h3.077c.975 0 1.482-.404 1.736-.742.245-.328.485-.903.222-1.798-.686-2.155-4.689-5.876-4.937-6.269a3.52 3.52 0 01.128-.218h-.002c.79-1.044 3.805-5.562 4.249-7.37a.023.023 0 00.002-.01c.24-.824.02-1.36-.207-1.662-.343-.452-.888-.681-1.624-.681h-3.076c-1.03 0-1.811.519-2.207 1.465-.66 1.681-2.518 5.139-3.91 6.363a80.036 80.036 0 01.008-4.042c.045-1.918.19-3.786-1.801-3.786h-4.835c-1.248 0-2.441 1.363-1.149 2.98 1.13 1.418.406 2.207.65 6.14-.95-1.019-2.64-3.77-3.835-7.286-.335-.951-.842-1.833-2.271-1.833H6.992c-1.247 0-1.992.68-1.992 1.819 0 2.557 5.661 16.93 15.181 16.93zM10.07 12.501c.271 0 .298 0 .5.572 1.223 3.603 3.968 8.936 5.973 8.936 1.507 0 1.507-1.544 1.507-2.125l-.002-4.628c-.082-1.531-.64-2.293-1.006-2.756l4.385.005c.003.021-.025 5.119.013 6.354 0 1.753 1.392 2.758 3.566.558 2.294-2.588 3.88-6.458 3.944-6.616.093-.225.175-.301.47-.301h3.089l-.003.011c-.281 1.313-3.058 5.495-3.986 6.794a.993.993 0 00-.043.063c-.409.667-.741 1.405.056 2.442h.002c.072.088.261.293.536.578.855.882 3.788 3.9 4.047 5.1-.172.027-.36.007-3.266.013-.618 0-1.102-.925-2.948-2.787-1.66-1.615-2.738-2.275-3.72-2.275-1.904 0-1.765 1.546-1.748 3.416.006 2.027-.006 1.386.008 1.514-.112.044-.43.131-1.262.131-7.931 0-13.096-12.589-13.295-14.995.069-.006 1.015-.003 3.183-.004z"/>
    </g>
    <defs>
        <clipPath id="cclip0">
            <path d="M5 5h30v30H5z"/>
        </clipPath>
    </defs>
</symbol><symbol viewBox="0 0 40 40" id="whatsapp" xmlns="http://www.w3.org/2000/svg">
    <path stroke-width="2" d="M1 1h38v38H1z"/>
    <g clip-path="url(#dclip0)">
        <path d="M30.739 9.261A14.452 14.452 0 0020.452 5h-.002c-1.922 0-3.795.372-5.567 1.106a14.475 14.475 0 00-4.718 3.155 14.453 14.453 0 00-4.261 10.287c0 2.318.559 4.62 1.618 6.673l-2.445 6.985a1.337 1.337 0 00.319 1.398 1.336 1.336 0 001.398.32l6.986-2.446a14.592 14.592 0 006.672 1.619c3.886 0 7.539-1.514 10.287-4.262A14.453 14.453 0 0035 19.548a14.45 14.45 0 00-4.261-10.287zm-1.244 19.33a12.704 12.704 0 01-9.043 3.746c-2.09 0-4.166-.517-6.004-1.495a1.355 1.355 0 00-1.08-.084L7.02 32.98l2.221-6.346a1.356 1.356 0 00-.084-1.081 12.82 12.82 0 01-1.495-6.004c0-3.416 1.33-6.627 3.746-9.043A12.706 12.706 0 0120.45 6.76c3.417 0 6.628 1.33 9.044 3.746a12.704 12.704 0 013.746 9.043c0 3.416-1.33 6.628-3.746 9.043z"/>
        <path d="M25.858 20.848a1.719 1.719 0 00-2.427 0l-.732.732a10.654 10.654 0 01-4.28-4.28l.733-.731c.67-.67.67-1.758 0-2.428l-1.973-1.972a1.719 1.719 0 00-2.427 0l-1.578 1.578c-.904.904-.949 2.458-.127 4.375.714 1.666 2.02 3.496 3.677 5.153 1.658 1.658 3.488 2.964 5.153 3.678.912.39 1.74.585 2.457.585.79 0 1.445-.238 1.919-.712l1.578-1.578c.324-.324.503-.755.503-1.214 0-.458-.179-.89-.503-1.214l-1.973-1.972zm-.85 4.734c-.257.258-1.05.348-2.437-.246-1.465-.628-3.1-1.801-4.602-3.305-1.504-1.503-2.677-3.137-3.305-4.602-.594-1.386-.504-2.18-.246-2.438l1.548-1.548 1.912 1.912-.917.917a1.343 1.343 0 00-.248 1.563 12.412 12.412 0 005.452 5.452c.52.266 1.15.166 1.563-.248l.917-.917 1.911 1.912-1.547 1.548z"/>
    </g>
    <defs>
        <clipPath id="dclip0">
            <path d="M5 5h30v30H5z"/>
        </clipPath>
    </defs>
</symbol></svg>